<svg xmlns="http://www.w3.org/2000/svg"  viewBox="0 0 40 40" width="40px" height="40px" baseProfile="basic"><linearGradient id="MqDaed04tEK9lteIBW7lba" x1="30" x2="44.408" y1="17" y2="17" gradientUnits="userSpaceOnUse"><stop offset="0" stop-color="#b2b2b2"/><stop offset="1"/></linearGradient><polygon fill="url(#MqDaed04tEK9lteIBW7lba)" points="30,19 38.731,19 40,15 34,15"/><linearGradient id="MqDaed04tEK9lteIBW7lbb" x1="32.014" x2="32.191" y1="26.144" y2="40.85" gradientUnits="userSpaceOnUse"><stop offset="0" stop-color="#b2b2b2"/><stop offset="1"/></linearGradient><polygon fill="url(#MqDaed04tEK9lteIBW7lbb)" points="30,19 30,35 34,31 34,15"/><linearGradient id="MqDaed04tEK9lteIBW7lbc" x1=".213" x2="12.629" y1="17" y2="17" gradientUnits="userSpaceOnUse"><stop offset="0" stop-color="#b2b2b2"/><stop offset="1"/></linearGradient><polygon fill="url(#MqDaed04tEK9lteIBW7lbc)" points="10,19 1.269,19 0,15 6,15"/><linearGradient id="MqDaed04tEK9lteIBW7lbd" x1="8" x2="8" y1="27.563" y2="39.45" gradientUnits="userSpaceOnUse"><stop offset="0" stop-color="#b2b2b2"/><stop offset="1"/></linearGradient><polygon fill="url(#MqDaed04tEK9lteIBW7lbd)" points="10,19 10,35 6,31 6,15"/><linearGradient id="MqDaed04tEK9lteIBW7lbe" x1="25.921" x2="17.802" y1="8.093" y2="2.598" gradientUnits="userSpaceOnUse"><stop offset="0" stop-color="#b2b2b2"/><stop offset="1"/></linearGradient><polygon fill="url(#MqDaed04tEK9lteIBW7lbe)" points="39.985,15.047 24.489,5 17.559,5 38.698,19.007"/><linearGradient id="MqDaed04tEK9lteIBW7lbf" x1="10.915" x2="20.955" y1="33" y2="33" gradientUnits="userSpaceOnUse"><stop offset="0" stop-color="#b2b2b2"/><stop offset="1"/></linearGradient><polygon fill="url(#MqDaed04tEK9lteIBW7lbf)" points="18,31 6,31 10,35 14,35"/><linearGradient id="MqDaed04tEK9lteIBW7lbg" x1="16" x2="16" y1="26.745" y2="20.106" gradientUnits="userSpaceOnUse"><stop offset="0" stop-color="#b2b2b2"/><stop offset="1"/></linearGradient><polygon fill="url(#MqDaed04tEK9lteIBW7lbg)" points="14,35 14,24 18,20 18,31"/><polygon fill="#b2b2b2" points="14,24 24,24 24,20 18,20"/><polygon fill="#b2b2b2" points="0.053,15.047 17.56,5 24.479,5 1.34,19.007"/><polygon fill="#b2b2b2" points="21,31 34,31 30,35 21,35"/></svg>